<svg xmlns="http://www.w3.org/2000/svg" version="1.1" xmlns:xlink="http://www.w3.org/1999/xlink" xmlns:svgjs="http://svgjs.dev/svgjs" width="1000" height="248" viewBox="0 0 1000 248"><g transform="matrix(1,0,0,1,0.1066666666666265,-0.5648600260416714)"><svg viewBox="0 0 375 93" data-background-color="#ffffff" preserveAspectRatio="xMidYMid meet" height="248" width="1000" xmlns="http://www.w3.org/2000/svg" xmlns:xlink="http://www.w3.org/1999/xlink"><g id="tight-bounds" transform="matrix(1,0,0,1,-0.03976036071776434,0.211822509765625)"><svg viewBox="0 0 375.07952880859375 92.57635498046875" height="92.57635498046875" width="375.07952880859375"><g><svg></svg></g><g><svg viewBox="0 0 375.07952880859375 92.57635498046875" height="92.57635498046875" width="375.07952880859375"><g transform="matrix(1,0,0,1,-10.220239639282227,-78.70388793945312)"><path xmlns="http://www.w3.org/2000/svg" d="M10.22 168.496v-89.792h375.08v89.792h-33.314v-2.074h31.24v-85.644h-370.932v85.644l153.16 0 0 2.074z" fill="#ba3b0a" fill-rule="nonzero" stroke="none" stroke-width="1" stroke-linecap="butt" stroke-linejoin="miter" stroke-miterlimit="10" stroke-dasharray="" stroke-dashoffset="0" font-family="none" font-weight="none" font-size="none" text-anchor="none" style="mix-blend-mode: normal" data-fill-palette-color="tertiary"></path><g><path xmlns="http://www.w3.org/2000/svg" d="M174.167 171.28h-2.491l4.999-10.03h3.36l4.982 10.03h-2.628l-1.006-2.166h-6.107zM178.244 162.785l-2.354 4.657h4.862l-2.337-4.657zM188.292 171.28h-2.081v-9.45l-0.171-1.365h2.252zM192.591 171.28h-2.081v-9.45l-0.171-1.365h2.252zM201.444 171.28h-0.853c-0.864 0-1.49-0.202-1.876-0.607-0.387-0.403-0.58-0.956-0.58-1.662v0c0-0.739 0.202-1.308 0.607-1.706 0.403-0.398 1.019-0.597 1.849-0.597v0h0.87c0.853 0 1.621 0.023 2.303 0.069 0.682 0.045 1.245 0.091 1.689 0.136v0-1.126c0-0.102-0.011-0.208-0.034-0.317-0.023-0.107-0.091-0.194-0.205-0.263-0.114-0.068-0.307-0.102-0.58-0.102v0h-0.853c-1.24 0-2.275 0.019-3.104 0.058-0.83 0.041-1.393 0.078-1.689 0.112v0l-0.188-1.296c0-0.159 0.432-0.256 1.297-0.29 0.864-0.034 2.309-0.051 4.333-0.051v0h0.853c0.569 0 1.006 0.08 1.313 0.239 0.307 0.159 0.527 0.358 0.659 0.597 0.13 0.239 0.209 0.481 0.238 0.726 0.027 0.243 0.041 0.45 0.041 0.621v0 5.459h-1.398l-0.666-0.341c-0.478 0.08-1.052 0.156-1.723 0.229-0.671 0.075-1.439 0.113-2.303 0.112zM201.035 169.813v0h3.906c0.25 0 0.398-0.023 0.444-0.068 0.045-0.045 0.068-0.188 0.068-0.427v0-1.313h-4.418c-0.307 0-0.52 0.074-0.638 0.222-0.121 0.148-0.181 0.381-0.181 0.699v0c0 0.318 0.068 0.546 0.205 0.682 0.136 0.136 0.341 0.205 0.614 0.205zM211.577 171.28h-2.081v-7.642h1.399l0.682 0.341c0.478-0.091 1.052-0.171 1.723-0.239 0.671-0.068 1.439-0.102 2.303-0.102v0h0.853c0.569 0 1.006 0.08 1.314 0.239 0.307 0.159 0.527 0.358 0.658 0.597 0.13 0.239 0.209 0.481 0.239 0.726 0.027 0.243 0.041 0.45 0.041 0.621v0 5.459h-2.081v-5.493c0-0.455-0.273-0.682-0.819-0.682v0h-3.719c-0.216 0-0.355 0.019-0.416 0.058-0.064 0.041-0.096 0.147-0.096 0.317v0zM221.881 162.563v0c-0.421 0-0.728-0.085-0.921-0.256-0.193-0.171-0.29-0.455-0.29-0.853v0c0-0.409 0.094-0.697 0.283-0.863 0.187-0.164 0.496-0.246 0.928-0.246v0c0.432 0 0.745 0.082 0.938 0.246 0.193 0.166 0.29 0.454 0.29 0.863v0c0 0.387-0.097 0.668-0.29 0.843-0.193 0.177-0.506 0.266-0.938 0.266zM222.922 171.28h-2.082v-7.642h2.082zM227.237 171.28h-2.081v-7.642h1.399l0.427 0.205c0.33-0.057 0.734-0.106 1.211-0.147 0.478-0.039 1.046-0.058 1.706-0.058v0h0.853c0.33 0 0.648 0.042 0.955 0.126 0.307 0.086 0.535 0.209 0.682 0.369v0c0.296-0.148 0.705-0.267 1.228-0.359 0.523-0.091 1.206-0.136 2.048-0.136v0h0.852c0.569 0 1.006 0.08 1.314 0.239 0.307 0.159 0.527 0.358 0.658 0.597 0.13 0.239 0.209 0.481 0.239 0.726 0.027 0.243 0.041 0.45 0.041 0.621v0 5.459h-2.081v-5.493c0-0.455-0.273-0.682-0.819-0.682v0h-2.388c-0.182 0-0.307 0.023-0.375 0.068-0.068 0.045-0.102 0.148-0.103 0.307v0 5.8h-2.081v-5.493c0-0.455-0.273-0.682-0.819-0.682v0h-2.354c-0.216 0-0.355 0.019-0.416 0.058-0.064 0.041-0.096 0.147-0.096 0.317v0zM243.785 171.28h-0.853c-0.864 0-1.49-0.202-1.877-0.607-0.387-0.403-0.58-0.956-0.58-1.662v0c0-0.739 0.202-1.308 0.607-1.706 0.403-0.398 1.019-0.597 1.85-0.597v0h0.87c0.853 0 1.621 0.023 2.303 0.069 0.682 0.045 1.245 0.091 1.688 0.136v0-1.126c0-0.102-0.011-0.208-0.034-0.317-0.023-0.107-0.091-0.194-0.204-0.263-0.114-0.068-0.307-0.102-0.58-0.102v0h-0.853c-1.24 0-2.275 0.019-3.105 0.058-0.83 0.041-1.393 0.078-1.689 0.112v0l-0.188-1.296c0-0.159 0.432-0.256 1.297-0.29 0.864-0.034 2.309-0.051 4.333-0.051v0h0.853c0.569 0 1.006 0.08 1.313 0.239 0.307 0.159 0.527 0.358 0.659 0.597 0.13 0.239 0.209 0.481 0.239 0.726 0.027 0.243 0.041 0.45 0.041 0.621v0 5.459h-1.399l-0.665-0.341c-0.478 0.08-1.052 0.156-1.723 0.229-0.671 0.075-1.439 0.113-2.303 0.112zM243.375 169.813v0h3.907c0.25 0 0.398-0.023 0.443-0.068 0.045-0.045 0.068-0.188 0.068-0.427v0-1.313h-4.418c-0.307 0-0.52 0.074-0.638 0.222-0.121 0.148-0.181 0.381-0.181 0.699v0c0 0.318 0.068 0.546 0.205 0.682 0.136 0.136 0.341 0.205 0.614 0.205zM254.088 171.28h-2.081v-9.45l-0.171-1.365h2.252zM262.891 171.28h-4.828c-0.762 0-1.302-0.04-1.621-0.119-0.318-0.08-0.478-0.159-0.477-0.239v0l0.511-1.279c0.33 0.034 0.936 0.071 1.819 0.109 0.88 0.041 1.969 0.061 3.265 0.061v0h0.853c0.284 0 0.464-0.077 0.539-0.232 0.073-0.152 0.109-0.359 0.109-0.621v0c0-0.262-0.042-0.472-0.126-0.631-0.086-0.159-0.26-0.239-0.522-0.239v0h-4.197c-0.796 0-1.37-0.151-1.722-0.454-0.353-0.3-0.529-0.752-0.529-1.354v0-0.682c0-0.159 0.017-0.347 0.051-0.563 0.034-0.216 0.119-0.432 0.256-0.649 0.136-0.216 0.358-0.396 0.665-0.539 0.307-0.141 0.734-0.212 1.279-0.211v0h4.709c0.682 0 1.166 0.04 1.45 0.119 0.284 0.08 0.426 0.159 0.426 0.239v0l-0.17 1.279c-0.33-0.034-0.938-0.072-1.826-0.112-0.887-0.039-1.973-0.058-3.258-0.058v0h-0.853c-0.284 0-0.463 0.076-0.536 0.228-0.075 0.155-0.113 0.334-0.112 0.54v0c0 0.216 0.038 0.395 0.112 0.535 0.073 0.143 0.251 0.215 0.536 0.215v0h4.197c0.773 0 1.342 0.159 1.706 0.478 0.364 0.318 0.546 0.722 0.545 1.211v0 1.006c0 0.205-0.014 0.421-0.041 0.649-0.03 0.227-0.113 0.44-0.249 0.638-0.136 0.2-0.358 0.363-0.665 0.488-0.307 0.125-0.739 0.188-1.296 0.187zM275.395 171.28h-2.73l-2.746-7.642h2.388l1.382 4.333 0.443 1.518h0.171l0.256-1.348 1.177-4.503h2.729l1.246 4.503 0.239 1.348h0.17l0.461-1.552 1.296-4.299h2.388l-0.272 1.04-2.457 6.602h-2.729l-1.416-4.691-0.171-0.802h-0.17l-0.205 0.802zM290.97 171.28h-3.429c-0.569 0-1.006-0.074-1.314-0.222-0.307-0.148-0.525-0.335-0.655-0.563-0.132-0.227-0.212-0.466-0.239-0.716-0.03-0.25-0.044-0.478-0.044-0.682v0-3.276c0-0.171 0.015-0.378 0.044-0.621 0.027-0.246 0.107-0.488 0.239-0.726 0.13-0.239 0.351-0.438 0.666-0.597 0.312-0.159 0.746-0.239 1.303-0.239v0h3.667c0.751 0 1.34 0.071 1.768 0.211 0.425 0.143 0.727 0.374 0.904 0.693 0.175 0.318 0.263 0.745 0.263 1.279v0 2.525h-2.986c-1.024 0-1.856-0.023-2.497-0.068-0.644-0.045-1.074-0.074-1.29-0.085v0 0.938c-0.011 0.455 0.262 0.682 0.819 0.682v0h0.87c0.614 0 1.215-0.009 1.801-0.027 0.585-0.016 1.121-0.039 1.611-0.068 0.489-0.027 0.881-0.052 1.177-0.075v0l0.682 1.108c0 0.353-1.12 0.529-3.36 0.529zM287.37 165.787v1.092h4.691v-1.092c0-0.227-0.025-0.387-0.075-0.477-0.052-0.091-0.204-0.148-0.453-0.171-0.25-0.023-0.677-0.034-1.28-0.034v0h-2.064c-0.546 0-0.819 0.227-0.819 0.682zM298.288 171.28h-2.081v-9.45l-0.171-1.365h2.252zM305.845 171.28h-3.429c-0.569 0-1.006-0.074-1.313-0.222-0.307-0.148-0.525-0.335-0.655-0.563-0.132-0.227-0.212-0.466-0.239-0.716-0.03-0.25-0.044-0.478-0.045-0.682v0-3.276c0-0.171 0.015-0.378 0.045-0.621 0.027-0.246 0.107-0.488 0.239-0.726 0.13-0.239 0.351-0.438 0.665-0.597 0.312-0.159 0.746-0.239 1.303-0.239v0h2.371c1.422 0 2.431 0.036 3.03 0.109 0.596 0.075 0.894 0.152 0.894 0.232v0l-0.341 1.296c-0.318-0.023-0.722-0.048-1.211-0.075-0.489-0.03-1.014-0.053-1.577-0.071-0.564-0.016-1.113-0.024-1.648-0.024v0h-0.87c-0.546 0-0.819 0.227-0.818 0.682v0 3.344c-0.011 0.455 0.262 0.682 0.818 0.682v0h0.87c0.614 0 1.215-0.009 1.802-0.027 0.585-0.016 1.121-0.039 1.61-0.068 0.489-0.027 0.881-0.052 1.177-0.075v0l0.683 1.108c0 0.353-1.12 0.529-3.361 0.529zM317.189 171.28h-4.708c-0.762 0-1.327-0.154-1.696-0.46-0.371-0.307-0.556-0.807-0.556-1.502v0-3.497c0-0.171 0.015-0.378 0.045-0.621 0.027-0.246 0.107-0.488 0.238-0.726 0.13-0.239 0.351-0.438 0.666-0.597 0.312-0.159 0.746-0.239 1.303-0.239v0h4.708c0.569 0 1.006 0.08 1.314 0.239 0.307 0.159 0.527 0.358 0.658 0.597 0.13 0.239 0.209 0.481 0.239 0.726 0.027 0.243 0.041 0.45 0.041 0.621v0 3.276c0 0.205-0.014 0.432-0.041 0.682-0.03 0.25-0.113 0.489-0.249 0.717-0.136 0.227-0.358 0.415-0.665 0.562-0.307 0.148-0.739 0.222-1.297 0.222zM313.129 169.813v0h3.412c0.557 0 0.836-0.227 0.836-0.682v0-3.344c0-0.455-0.279-0.682-0.836-0.682v0h-3.412c-0.546 0-0.819 0.227-0.819 0.682v0 3.344c0 0.455 0.273 0.682 0.819 0.682zM323.399 171.28h-2.081v-7.642h1.398l0.427 0.205c0.33-0.057 0.734-0.106 1.211-0.147 0.478-0.039 1.046-0.058 1.706-0.058v0h0.853c0.33 0 0.648 0.042 0.955 0.126 0.307 0.086 0.535 0.209 0.683 0.369v0c0.296-0.148 0.705-0.267 1.228-0.359 0.523-0.091 1.206-0.136 2.047-0.136v0h0.853c0.569 0 1.006 0.08 1.313 0.239 0.307 0.159 0.527 0.358 0.659 0.597 0.13 0.239 0.209 0.481 0.239 0.726 0.027 0.243 0.041 0.45 0.041 0.621v0 5.459h-2.082v-5.493c0-0.455-0.273-0.682-0.818-0.682v0h-2.389c-0.182 0-0.307 0.023-0.375 0.068-0.068 0.045-0.102 0.148-0.102 0.307v0 5.8h-2.082v-5.493c0-0.455-0.273-0.682-0.818-0.682v0h-2.354c-0.216 0-0.355 0.019-0.417 0.058-0.064 0.041-0.096 0.147-0.095 0.317v0zM342.402 171.28h-3.428c-0.569 0-1.006-0.074-1.314-0.222-0.307-0.148-0.525-0.335-0.655-0.563-0.132-0.227-0.212-0.466-0.239-0.716-0.03-0.25-0.044-0.478-0.044-0.682v0-3.276c0-0.171 0.015-0.378 0.044-0.621 0.027-0.246 0.107-0.488 0.239-0.726 0.13-0.239 0.351-0.438 0.665-0.597 0.312-0.159 0.746-0.239 1.304-0.239v0h3.667c0.751 0 1.34 0.071 1.768 0.211 0.425 0.143 0.727 0.374 0.904 0.693 0.175 0.318 0.263 0.745 0.262 1.279v0 2.525h-2.985c-1.024 0-1.856-0.023-2.497-0.068-0.644-0.045-1.074-0.074-1.29-0.085v0 0.938c-0.011 0.455 0.262 0.682 0.819 0.682v0h0.87c0.614 0 1.215-0.009 1.801-0.027 0.585-0.016 1.121-0.039 1.611-0.068 0.489-0.027 0.881-0.052 1.177-0.075v0l0.682 1.108c0 0.353-1.12 0.529-3.361 0.529zM338.803 165.787v1.092h4.691v-1.092c0-0.227-0.025-0.387-0.075-0.477-0.052-0.091-0.204-0.148-0.454-0.171-0.25-0.023-0.677-0.034-1.279-0.034v0h-2.064c-0.546 0-0.819 0.227-0.819 0.682z" fill="#ba3b0a" fill-rule="nonzero" stroke="none" stroke-width="1" stroke-linecap="butt" stroke-linejoin="miter" stroke-miterlimit="10" stroke-dasharray="" stroke-dashoffset="0" font-family="none" font-weight="none" font-size="none" text-anchor="none" style="mix-blend-mode: normal" data-fill-palette-color="secondary"></path></g></g><g transform="matrix(1,0,0,1,29.331764404296877,30.394774976433567)"><svg viewBox="0 0 316.416 31.786805027601616" height="31.786805027601616" width="316.416"><g><svg viewBox="0 0 316.416 31.786805027601616" height="31.786805027601616" width="316.416"><g><svg viewBox="0 0 365.11752538025536 36.679306961160506" height="31.786805027601616" width="316.416"><g transform="matrix(1,0,0,1,0,5.069281931679926)"><svg viewBox="0 0 316.416 26.540743097800654" height="26.540743097800654" width="316.416"><g><svg viewBox="0 0 316.416 26.540743097800654" height="26.540743097800654" width="316.416"><g><svg viewBox="0 0 316.416 26.540743097800654" height="26.540743097800654" width="316.416"><g transform="matrix(1,0,0,1,0,0)"><svg width="316.416" viewBox="2 -35.349998474121094 427.3500061035156 35.849998474121094" height="26.540743097800654" data-palette-color="#ba3b0a"><path d="M7.85 0L2.2 0Q2 0 2-0.25L2-0.25 2.1-34.6Q2.1-34.8 2.3-34.8L2.3-34.8 8.4-34.8Q8.6-34.8 8.75-34.6L8.75-34.6 13.3-28 17.85-34.6Q18-34.8 18.2-34.8L18.2-34.8 24.35-34.8Q24.55-34.8 24.55-34.6L24.55-34.6 24.65-0.25Q24.65 0 24.45 0L24.45 0 18.8 0Q18.6 0 18.6-0.25L18.6-0.25 18.55-25.75 13.3-18.15 8.1-25.75 8.05-0.25Q8.05 0 7.85 0L7.85 0ZM45.2 0L29.05 0Q28.85 0 28.85-0.25L28.85-0.25 28.9-34.6Q28.9-34.8 29.1-34.8L29.1-34.8 45.15-34.8Q45.35-34.8 45.35-34.55L45.35-34.55 45.35-28.95Q45.35-28.75 45.15-28.75L45.15-28.75 34.9-28.75 34.9-20.95 45.15-20.95Q45.35-20.95 45.35-20.75L45.35-20.75 45.4-15.1Q45.4-14.9 45.2-14.9L45.2-14.9 34.9-14.9 34.9-6.15 45.2-6.15Q45.4-6.15 45.4-5.9L45.4-5.9 45.4-0.2Q45.4 0 45.2 0L45.2 0ZM59.05-0.05L50.09 0Q49.84 0 49.84-0.25L49.84-0.25 49.95-34.6Q49.95-34.8 50.14-34.8L50.14-34.8 59.49-34.85Q62.24-34.9 64.52-33.55 66.8-32.2 68.14-29.93 69.5-27.65 69.5-24.9L69.5-24.9 69.5-10.55Q69.5-7.65 68.09-5.28 66.69-2.9 64.34-1.5 61.99-0.1 59.05-0.05L59.05-0.05ZM55.99-28.8L55.95-6.15 59.05-6.15Q60.89-6.15 62.17-7.45 63.45-8.75 63.45-10.55L63.45-10.55 63.45-24.95Q63.45-26.55 62.27-27.73 61.09-28.9 59.49-28.85L59.49-28.85 55.99-28.8ZM79.29 0L73.69 0Q73.44 0 73.44-0.25L73.44-0.25 73.54-34.6Q73.54-34.8 73.74-34.8L73.74-34.8 89.74-34.8Q89.99-34.8 89.99-34.6L89.99-34.6 89.99-28.95Q89.99-28.75 89.79-28.75L89.79-28.75 79.54-28.75 79.54-21 89.79-21Q89.99-21 89.99-20.75L89.99-20.75 90.04-15.1Q90.04-14.9 89.79-14.9L89.79-14.9 79.54-14.9 79.54-0.25Q79.54 0 79.29 0L79.29 0ZM101.94 0.5L101.94 0.5Q99.24 0.5 97.02-0.88 94.79-2.25 93.44-4.53 92.09-6.8 92.09-9.55L92.09-9.55 92.14-25.4Q92.14-28.15 93.47-30.4 94.79-32.65 97.04-34 99.29-35.35 101.94-35.35L101.94-35.35Q104.64-35.35 106.84-34 109.04-32.65 110.36-30.4 111.69-28.15 111.69-25.4L111.69-25.4 111.74-9.55Q111.74-6.8 110.41-4.53 109.09-2.25 106.86-0.88 104.64 0.5 101.94 0.5ZM101.94-5.55L101.94-5.55Q103.44-5.55 104.56-6.78 105.69-8 105.69-9.55L105.69-9.55 105.64-25.4Q105.64-27.05 104.59-28.2 103.54-29.35 101.94-29.35L101.94-29.35Q100.39-29.35 99.29-28.23 98.19-27.1 98.19-25.4L98.19-25.4 98.19-9.55Q98.19-7.9 99.29-6.73 100.39-5.55 101.94-5.55ZM121.39 0L115.74 0Q115.54 0 115.54-0.25L115.54-0.25 115.64-34.6Q115.64-34.8 115.84-34.8L115.84-34.8 125.94-34.8Q128.64-34.8 130.91-33.48 133.19-32.15 134.54-29.93 135.89-27.7 135.89-24.9L135.89-24.9Q135.89-23.05 135.34-21.58 134.79-20.1 134.04-19.07 133.29-18.05 132.69-17.55L132.69-17.55Q135.39-14.55 135.39-10.5L135.39-10.5 135.44-0.25Q135.44 0 135.19 0L135.19 0 129.54 0Q129.34 0 129.34-0.15L129.34-0.15 129.34-10.5Q129.34-12.3 128.06-13.63 126.79-14.95 124.94-14.95L124.94-14.95 121.64-14.95 121.59-0.25Q121.59 0 121.39 0L121.39 0ZM121.64-28.8L121.64-20.95 125.94-20.95Q127.49-20.95 128.69-22.1 129.89-23.25 129.89-24.9L129.89-24.9Q129.89-26.5 128.71-27.65 127.54-28.8 125.94-28.8L125.94-28.8 121.64-28.8ZM148.83-0.05L139.88 0Q139.63 0 139.63-0.25L139.63-0.25 139.73-34.6Q139.73-34.8 139.94-34.8L139.94-34.8 149.28-34.85Q152.03-34.9 154.31-33.55 156.58-32.2 157.94-29.93 159.28-27.65 159.28-24.9L159.28-24.9 159.28-10.55Q159.28-7.65 157.88-5.28 156.48-2.9 154.13-1.5 151.78-0.1 148.83-0.05L148.83-0.05ZM145.78-28.8L145.73-6.15 148.83-6.15Q150.69-6.15 151.96-7.45 153.23-8.75 153.23-10.55L153.23-10.55 153.23-24.95Q153.23-26.55 152.06-27.73 150.88-28.9 149.28-28.85L149.28-28.85 145.78-28.8ZM170.08-0.25L170.08-0.25 176.28-34.6Q176.33-34.8 176.53-34.8L176.53-34.8 183.78-34.8Q183.98-34.8 184.03-34.6L184.03-34.6 189.98-0.25Q190.03 0 189.78 0L189.78 0 184.23 0Q184.03 0 183.98-0.25L183.98-0.25 183.43-3.9 176.63-3.9 176.08-0.25Q176.03 0 175.83 0L175.83 0 170.28 0Q170.08 0 170.08-0.25ZM179.88-23.3L177.63-9.25 182.43-9.25 180.38-23.3 180.08-25.15 179.88-23.3ZM198.58 0L193.58 0Q193.18 0 193.18-0.35L193.18-0.35 193.13-34.4Q193.13-34.8 193.53-34.8L193.53-34.8 198.03-34.8 206.48-15.1 206.23-34.4Q206.23-34.8 206.68-34.8L206.68-34.8 211.63-34.8Q211.93-34.8 211.93-34.4L211.93-34.4 211.98-0.3Q211.98 0 211.73 0L211.73 0 207.33 0 198.68-18.4 199.03-0.4Q199.03 0 198.58 0L198.58 0ZM222.22 0L216.57 0Q216.32 0 216.32-0.25L216.32-0.25 216.38-34.6Q216.38-34.8 216.57-34.8L216.57-34.8 222.17-34.8Q222.38-34.8 222.38-34.6L222.38-34.6 222.42-0.25Q222.42 0 222.22 0L222.22 0ZM232.67 0L227.02 0Q226.82 0 226.82-0.25L226.82-0.25 226.92-34.6Q226.92-34.8 227.12-34.8L227.12-34.8 233.22-34.8Q233.42-34.8 233.57-34.6L233.57-34.6 238.12-28 242.67-34.6Q242.82-34.8 243.02-34.8L243.02-34.8 249.17-34.8Q249.37-34.8 249.37-34.6L249.37-34.6 249.47-0.25Q249.47 0 249.27 0L249.27 0 243.62 0Q243.42 0 243.42-0.25L243.42-0.25 243.37-25.75 238.12-18.15 232.92-25.75 232.87-0.25Q232.87 0 232.67 0L232.67 0ZM251.97-0.25L251.97-0.25 258.17-34.6Q258.22-34.8 258.42-34.8L258.42-34.8 265.67-34.8Q265.87-34.8 265.92-34.6L265.92-34.6 271.87-0.25Q271.92 0 271.67 0L271.67 0 266.12 0Q265.92 0 265.87-0.25L265.87-0.25 265.32-3.9 258.52-3.9 257.97-0.25Q257.92 0 257.72 0L257.72 0 252.17 0Q251.97 0 251.97-0.25ZM261.77-23.3L259.52-9.25 264.32-9.25 262.27-23.3 261.97-25.15 261.77-23.3ZM291.37 0L275.22 0Q275.02 0 275.02-0.25L275.02-0.25 275.07-34.55Q275.07-34.8 275.32-34.8L275.32-34.8 280.87-34.8Q281.12-34.8 281.12-34.55L281.12-34.55 281.07-6.15 291.37-6.15Q291.62-6.15 291.62-5.9L291.62-5.9 291.62-0.25Q291.62 0 291.37 0L291.37 0ZM306.11 0L300.46 0Q300.26 0 300.26-0.25L300.26-0.25 300.36-34.6Q300.36-34.8 300.56-34.8L300.56-34.8 310.66-34.8Q313.36-34.8 315.64-33.48 317.91-32.15 319.26-29.93 320.61-27.7 320.61-24.9L320.61-24.9Q320.61-23.05 320.06-21.58 319.51-20.1 318.76-19.07 318.01-18.05 317.41-17.55L317.41-17.55Q320.11-14.55 320.11-10.5L320.11-10.5 320.16-0.25Q320.16 0 319.91 0L319.91 0 314.26 0Q314.06 0 314.06-0.15L314.06-0.15 314.06-10.5Q314.06-12.3 312.79-13.63 311.51-14.95 309.66-14.95L309.66-14.95 306.36-14.95 306.31-0.25Q306.31 0 306.11 0L306.11 0ZM306.36-28.8L306.36-20.95 310.66-20.95Q312.21-20.95 313.41-22.1 314.61-23.25 314.61-24.9L314.61-24.9Q314.61-26.5 313.44-27.65 312.26-28.8 310.66-28.8L310.66-28.8 306.36-28.8ZM340.71 0L324.56 0Q324.36 0 324.36-0.25L324.36-0.25 324.41-34.6Q324.41-34.8 324.61-34.8L324.61-34.8 340.66-34.8Q340.86-34.8 340.86-34.55L340.86-34.55 340.86-28.95Q340.86-28.75 340.66-28.75L340.66-28.75 330.41-28.75 330.41-20.95 340.66-20.95Q340.86-20.95 340.86-20.75L340.86-20.75 340.91-15.1Q340.91-14.9 340.71-14.9L340.71-14.9 330.41-14.9 330.41-6.15 340.71-6.15Q340.91-6.15 340.91-5.9L340.91-5.9 340.91-0.2Q340.91 0 340.71 0L340.71 0ZM353.56 0.5L353.56 0.5Q350.86 0.5 348.63-0.88 346.41-2.25 345.08-4.53 343.76-6.8 343.76-9.55L343.76-9.55 343.76-11.85Q343.76-12.1 344.01-12.1L344.01-12.1 349.61-12.1Q349.81-12.1 349.81-11.85L349.81-11.85 349.81-9.55Q349.81-7.9 350.91-6.73 352.01-5.55 353.56-5.55L353.56-5.55Q355.11-5.55 356.21-6.75 357.31-7.95 357.31-9.55L357.31-9.55Q357.31-11.4 354.91-12.75L354.91-12.75Q354.11-13.2 352.41-14.15 350.71-15.1 349.21-15.95L349.21-15.95Q346.46-17.55 345.13-19.98 343.81-22.4 343.81-25.45L343.81-25.45Q343.81-28.25 345.16-30.48 346.51-32.7 348.73-34 350.96-35.3 353.56-35.3L353.56-35.3Q356.21-35.3 358.43-33.98 360.66-32.65 361.98-30.43 363.31-28.2 363.31-25.45L363.31-25.45 363.31-21.35Q363.31-21.15 363.11-21.15L363.11-21.15 357.51-21.15Q357.31-21.15 357.31-21.35L357.31-21.35 357.26-25.45Q357.26-27.2 356.16-28.3 355.06-29.4 353.56-29.4L353.56-29.4Q352.01-29.4 350.91-28.23 349.81-27.05 349.81-25.45L349.81-25.45Q349.81-23.8 350.51-22.7 351.21-21.6 353.06-20.6L353.06-20.6Q353.31-20.45 354.03-20.08 354.76-19.7 355.61-19.23 356.46-18.75 357.13-18.4 357.81-18.05 357.96-17.95L357.96-17.95Q360.46-16.55 361.91-14.53 363.36-12.5 363.36-9.55L363.36-9.55Q363.36-6.7 362.03-4.42 360.71-2.15 358.48-0.83 356.26 0.5 353.56 0.5ZM376.06 0.5L376.06 0.5Q373.31 0.5 371.08-0.88 368.86-2.25 367.56-4.55 366.25-6.85 366.25-9.7L366.25-9.7 366.31-25.3Q366.31-28.05 367.58-30.33 368.86-32.6 371.08-33.98 373.31-35.35 376.06-35.35L376.06-35.35Q378.81-35.35 381-34 383.21-32.65 384.5-30.38 385.81-28.1 385.81-25.3L385.81-25.3 385.81-23Q385.81-22.8 385.61-22.8L385.61-22.8 380-22.8Q379.81-22.8 379.81-23L379.81-23 379.81-25.3Q379.81-26.95 378.73-28.15 377.66-29.35 376.06-29.35L376.06-29.35Q374.25-29.35 373.31-28.13 372.36-26.9 372.36-25.3L372.36-25.3 372.36-9.7Q372.36-7.85 373.43-6.7 374.5-5.55 376.06-5.55L376.06-5.55Q377.66-5.55 378.73-6.83 379.81-8.1 379.81-9.7L379.81-9.7 379.81-12Q379.81-12.2 380-12.2L380-12.2 385.66-12.2Q385.86-12.2 385.86-12L385.86-12 385.86-9.7Q385.86-6.85 384.53-4.55 383.21-2.25 381-0.88 378.81 0.5 376.06 0.5ZM399 0.5L399 0.5Q396.35 0.5 394.1-0.88 391.85-2.25 390.53-4.55 389.2-6.85 389.2-9.6L389.2-9.6 389.3-34.6Q389.3-34.8 389.5-34.8L389.5-34.8 395.1-34.8Q395.3-34.8 395.3-34.6L395.3-34.6 395.3-9.6Q395.3-7.9 396.38-6.73 397.45-5.55 399-5.55L399-5.55Q400.6-5.55 401.68-6.73 402.75-7.9 402.75-9.6L402.75-9.6 402.75-34.6Q402.75-34.8 402.95-34.8L402.95-34.8 408.55-34.8Q408.75-34.8 408.75-34.6L408.75-34.6 408.85-9.6Q408.85-6.8 407.53-4.5 406.2-2.2 403.98-0.85 401.75 0.5 399 0.5ZM429.15 0L413 0Q412.8 0 412.8-0.25L412.8-0.25 412.85-34.6Q412.85-34.8 413.05-34.8L413.05-34.8 429.1-34.8Q429.3-34.8 429.3-34.55L429.3-34.55 429.3-28.95Q429.3-28.75 429.1-28.75L429.1-28.75 418.85-28.75 418.85-20.95 429.1-20.95Q429.3-20.95 429.3-20.75L429.3-20.75 429.35-15.1Q429.35-14.9 429.15-14.9L429.15-14.9 418.85-14.9 418.85-6.15 429.15-6.15Q429.35-6.15 429.35-5.9L429.35-5.9 429.35-0.2Q429.35 0 429.15 0L429.15 0Z" opacity="1" transform="matrix(1,0,0,1,0,0)" fill="#ba3b0a" class="undefined-text-0" data-fill-palette-color="primary" id="text-0"></path></svg></g></svg></g></svg></g></svg></g><g transform="matrix(1,0,0,1,322.68163246755637,0)"><svg viewBox="0 0 42.43589291269897 36.679306961160506" height="36.679306961160506" width="42.43589291269897"><g><svg xmlns="http://www.w3.org/2000/svg" xmlns:xlink="http://www.w3.org/1999/xlink" version="1.1" x="0" y="0" viewBox="0.0008309483528137207 6.011000156402588 99.8511734008789 86.30599212646484" enable-background="new 0 0 100 92.316" xml:space="preserve" width="42.43589291269897" height="36.679306961160506" class="icon-icon-0" data-fill-palette-color="accent" id="icon-0"><path d="M34.87 64.586h23.979v21.406c0 3.498 2.825 6.324 6.323 6.324l0 0c3.499 0 6.349-2.826 6.349-6.324V64.586c1.578 0 2.733-1.243 2.733-2.695V45.926l-20.692-9.796H10.976l-5.494-3.108c-1.763-1.012-4.005-0.391-5.002 1.372l0 0c-0.998 1.763-0.388 3.992 1.374 5.002l8.681 4.978v41.619c0 3.498 2.838 6.324 6.337 6.324l0 0c3.499 0 6.336-2.826 6.336-6.324l-0.012-16.301 11.48 19.386c1.789 3.008 5.676 3.99 8.694 2.203l0 0c2.993-1.79 3.979-5.703 2.191-8.709L34.87 64.586z" fill="#ba3b0a" data-fill-palette-color="accent"></path><path d="M88.154 12.751l-3.138-4.85-30.632 6.146L65.9 30.567l5.272-3.296V15.176h3.032v13.775l-9.281 5.8-4.562-6.64-4.245 5.062 18.57 9.112 25.123-15.273 0.043-14.275L88.154 12.751zM79.837 23.199c-1.632 0-2.955-1.324-2.955-2.956 0-1.633 1.323-2.956 2.955-2.956 1.636 0 2.956 1.323 2.956 2.956C82.793 21.875 81.473 23.199 79.837 23.199z" fill="#ba3b0a" data-fill-palette-color="accent"></path><polygon points="53.579,36.145 0.202,10.407 0.202,6.011 56.139,33.173 " fill="#ba3b0a" data-fill-palette-color="accent"></polygon></svg></g></svg></g></svg></g></svg></g></svg></g></svg></g><defs></defs></svg><rect width="375.07952880859375" height="92.57635498046875" fill="none" stroke="none" visibility="hidden"></rect></g></svg></g></svg>