<svg xmlns="http://www.w3.org/2000/svg" version="1.1" xmlns:xlink="http://www.w3.org/1999/xlink" xmlns:svgjs="http://svgjs.dev/svgjs" width="2000" height="1558" viewBox="0 0 2000 1558"><g transform="matrix(1,0,0,1,1.2543510344032711,0.6307692307691468)"><svg viewBox="0 0 317 247" data-background-color="#b19dd0" preserveAspectRatio="xMidYMid meet" height="1558" width="2000" xmlns="http://www.w3.org/2000/svg" xmlns:xlink="http://www.w3.org/1999/xlink"><g id="tight-bounds" transform="matrix(1,0,0,1,-0.19881463895291063,-0.09999999999999432)"><svg viewBox="0 0 317.39761132491753 247.2" height="247.2" width="317.39761132491753"><g><svg viewBox="0 0 395.52 308.0443598547154" height="247.2" width="317.39761132491753"><g transform="matrix(1,0,0,1,0,228.80802359373678)"><svg viewBox="0 0 395.52 79.23633626097866" height="79.23633626097866" width="395.52"><g id="textblocktransform"><svg viewBox="0 0 395.52 79.23633626097866" height="79.23633626097866" width="395.52" id="textblock"><g><svg viewBox="0 0 395.52 79.23633626097866" height="79.23633626097866" width="395.52"><g transform="matrix(1,0,0,1,0,0)"><svg width="395.52" viewBox="2.0999999046325684 -36.70000076293945 239.07998657226562 47.900001525878906" height="79.23633626097866" data-palette-color="#000000"><path d="M12.45 0.6L12.45 0.6Q8.95 0.6 5.75-1.4L5.75-1.4Q4.15-2.4 3.13-4.2 2.1-6 2.1-8.35L2.1-8.35Q2.1-12.8 5.05-15.6 8-18.4 12.15-18.85L12.15-18.85Q9.35-19.6 7.68-21.45 6-23.3 6-26.15L6-26.15Q6-30.45 9.38-32.98 12.75-35.5 17.1-35.5 21.45-35.5 24.35-33.65 27.25-31.8 27.25-28.65L27.25-28.65Q27.25-27.55 26.88-26.5 26.5-25.45 26.1-25L26.1-25 25.75-24.5Q24.15-24.5 22.23-25.05 20.3-25.6 19.4-26.45L19.4-26.45 20-31.6Q19.25-32.35 17.48-32.35 15.7-32.35 14.68-30.53 13.65-28.7 13.65-26.35 13.65-24 14.2-22.8 14.75-21.6 15.75-20.95L15.75-20.95Q17.3-19.95 19.4-19.55L19.4-19.55 19-16.8Q15.4-16.8 12.75-14.68 10.1-12.55 10.1-9.05L10.1-9.05Q10.1-6.85 11.53-5.43 12.95-4 15.2-4L15.2-4Q19.3-4 23.6-8.15L23.6-8.15 25.6-6.3Q19.8 0.6 12.45 0.6ZM42.15-20.7L42.15-20.7Q42.25-20.8 42.7-22L42.7-22Q45.05-22 49-20.6L49-20.6Q47.75-16.45 47-11.93 46.25-7.4 46.25-5.48 46.25-3.55 46.65-3.55L46.65-3.55Q46.95-3.55 48.85-4.5L48.85-4.5 49.45-4.8 50.35-3.05Q49.9-2.65 49.17-2.05 48.45-1.45 46.45-0.43 44.45 0.6 42.85 0.6L42.85 0.6Q39.75 0.6 39.25-2.2L39.25-2.2Q36.05 0.6 33.47 0.6 30.9 0.6 29.12-1.4 27.35-3.4 27.35-7.7L27.35-7.7Q27.35-14.4 30.1-18.28 32.85-22.15 36.75-22.15L36.75-22.15Q39.55-22.15 42.15-20.7ZM36.45-3.65L36.45-3.65Q37.65-3.65 39.15-4.6L39.15-4.6Q39.5-11.65 41.5-18.55L41.5-18.55Q40-19.2 38.95-19.2L38.95-19.2Q37.15-19.2 35.87-15.68 34.6-12.15 34.6-7.9 34.6-3.65 36.45-3.65ZM66.09-6.55L66.09-6.55Q66.09-3.4 63.32-1.4 60.55 0.6 57 0.6 53.45 0.6 51.37-0.9 49.3-2.4 49.3-3.55L49.3-3.55Q49.3-4.25 51.05-5.83 52.8-7.4 54-7.75L54-7.75Q56.5-5.9 58.1-1.9L58.1-1.9Q59.95-2.05 59.95-3.65L59.95-3.65Q59.95-5.95 55.9-10.18 51.85-14.4 51.85-16.9 51.85-19.4 54.1-20.78 56.35-22.15 59.52-22.15 62.7-22.15 64.3-21.03 65.9-19.9 65.9-17.98 65.9-16.05 62.85-12.65L62.85-12.65Q63.2-12.3 63.75-11.73 64.3-11.15 65.2-9.55 66.09-7.95 66.09-6.55ZM61.3-14.4Q63.4-16.2 63.4-17.95 63.4-19.7 61-19.7L61-19.7Q59.85-19.7 59.1-19.23 58.35-18.75 58.35-18.15L58.35-18.15Q58.35-17.05 60.55-15.05L60.55-15.05 61.3-14.4ZM75.22 5.4Q73.54 6.4 73.54 7.35 73.54 8.3 74.62 8.3 75.69 8.3 77.04 7.28 78.39 6.25 79.29 3.95L79.29 3.95Q76.89 4.4 75.22 5.4ZM72.79 0.2L72.79 0.2Q68.59 0.2 68.59-4.4L68.59-4.4Q68.59-5.5 69.59-10.75 70.59-16 70.59-19.5L70.59-19.5Q70.59-20.25 70.39-20.9L70.39-20.9Q73.09-21.95 77.79-21.95L77.79-21.95Q78.04-21.25 78.04-19.55 78.04-17.85 76.94-12.5 75.84-7.15 75.84-5.6 75.84-4.05 77.14-4.05L77.14-4.05Q78.69-4.05 80.89-5.6L80.89-5.6Q81.14-8.55 82.89-21.15L82.89-21.15Q84.64-21.85 89.19-21.85L89.19-21.85 90.14-21.85Q89.19-18.1 88.29-11.05 87.39-4 86.84-1.25L86.84-1.25Q85.79 4.25 82.97 7.73 80.14 11.2 75.59 11.2L75.59 11.2Q73.79 11.2 72.32 10.25 70.84 9.3 70.84 7.8L70.84 7.8Q70.84 5.8 73.29 4.15 75.74 2.5 79.89 1.6L79.89 1.6Q80.34-0.6 80.59-2.65L80.59-2.65Q76.54 0.2 72.79 0.2ZM103.24 0.25L103.24 0.25Q102.29 0.25 101.94 0.2L101.94 0.2Q102.29-2.7 105.01-14.53 107.74-26.35 107.74-29.5L107.74-29.5Q107.74-30.1 107.04-31.08 106.34-32.05 105.64-32.7L105.64-32.7 104.99-33.4 105.14-34.2Q111.99-35.5 119.64-35.5L119.64-35.5Q128.84-35.5 128.84-28.25L128.84-28.25Q128.84-24.7 127.06-21.78 125.29-18.85 121.54-17.2L121.54-17.2Q124.34-7.85 126.34-5.1L126.34-5.1Q127.24-3.95 127.74-3.95L127.74-3.95Q128.64-3.95 130.54-4.85L130.54-4.85 131.14-5.15 132.29-3.3Q130.44-1.6 128.01-0.5 125.59 0.6 123.46 0.6 121.34 0.6 119.96-1.23 118.59-3.05 117.46-6.6 116.34-10.15 115.19-15.7L115.19-15.7Q113.59-15.6 112.74-15.6L112.74-15.6Q110.19-4.65 109.94-0.8L109.94-0.8Q107.79 0.25 103.24 0.25ZM113.49-19L114.69-19Q117.69-19 119.41-21.68 121.14-24.35 121.14-28.05L121.14-28.05Q121.14-30 120.44-31.2 119.74-32.4 118.34-32.4L118.34-32.4Q117.74-32.4 116.91-32.23 116.09-32.05 116.09-32L116.09-32Q115.29-26.85 113.49-19L113.49-19ZM132.69-8.65L132.69-8.65Q132.69-14.9 136.46-18.53 140.24-22.15 145.04-22.15L145.04-22.15Q147.99-22.15 149.89-20.7 151.79-19.25 151.79-16.82 151.79-14.4 150.56-12.75 149.34-11.1 147.59-10.2L147.59-10.2Q144.04-8.45 141.09-8L141.09-8 139.89-7.85Q140.24-3.15 143.74-3.15L143.74-3.15Q144.94-3.15 146.29-3.75 147.64-4.35 148.39-4.95L148.39-4.95 149.14-5.55 150.34-3.95Q149.94-3.4 148.74-2.5 147.54-1.6 146.49-1L146.49-1Q143.59 0.6 140.14 0.6 136.69 0.6 134.69-1.85 132.69-4.3 132.69-8.65ZM139.84-10.3Q142.39-10.75 143.89-12.45 145.39-14.15 145.39-16.85 145.39-19.55 143.79-19.55L143.79-19.55Q141.89-19.55 140.86-16.32 139.84-13.1 139.84-10.3L139.84-10.3ZM167.73-20.7L167.73-20.7Q167.83-20.8 168.28-22L168.28-22Q170.63-22 174.58-20.6L174.58-20.6Q173.33-16.45 172.58-11.93 171.83-7.4 171.83-5.48 171.83-3.55 172.23-3.55L172.23-3.55Q172.53-3.55 174.43-4.5L174.43-4.5 175.03-4.8 175.93-3.05Q175.48-2.65 174.76-2.05 174.03-1.45 172.03-0.43 170.03 0.6 168.43 0.6L168.43 0.6Q165.33 0.6 164.83-2.2L164.83-2.2Q161.63 0.6 159.06 0.6 156.48 0.6 154.71-1.4 152.93-3.4 152.93-7.7L152.93-7.7Q152.93-14.4 155.68-18.28 158.43-22.15 162.33-22.15L162.33-22.15Q165.13-22.15 167.73-20.7ZM162.03-3.65L162.03-3.65Q163.23-3.65 164.73-4.6L164.73-4.6Q165.08-11.65 167.08-18.55L167.08-18.55Q165.58-19.2 164.53-19.2L164.53-19.2Q162.73-19.2 161.46-15.68 160.18-12.15 160.18-7.9 160.18-3.65 162.03-3.65ZM199.58-4.8L200.53-3.05Q196.28 0.6 193.06 0.6 189.83 0.6 189.33-2.6L189.33-2.6Q187.83-1.1 185.98-0.25 184.13 0.6 182.73 0.6L182.73 0.6Q180.33 0.6 178.63-1.5 176.93-3.6 176.93-8L176.93-8Q176.93-14.6 179.73-18.38 182.53-22.15 186.06-22.15 189.58-22.15 191.98-20.55L191.98-20.55Q193.53-28.65 193.53-33.3L193.53-33.3 193.28-35.4Q197.03-36.7 200.63-36.7L200.63-36.7Q201.03-35.85 201.03-34.75L201.03-34.75Q201.03-31.1 198.83-19.93 196.63-8.75 196.63-4.75L196.63-4.75Q196.63-3.55 197.18-3.55L197.18-3.55Q197.48-3.55 199.08-4.5L199.08-4.5 199.58-4.8ZM188.48-19.2L188.48-19.2Q186.73-19.2 185.46-15.75 184.18-12.3 184.18-8.93 184.18-5.55 184.66-4.6 185.13-3.65 186.08-3.65L186.08-3.65Q187.73-3.65 189.33-5L189.33-5Q189.48-7 191.58-18.3L191.58-18.3Q189.88-19.2 188.48-19.2ZM201.73-8.65L201.73-8.65Q201.73-14.9 205.5-18.53 209.28-22.15 214.08-22.15L214.08-22.15Q217.03-22.15 218.93-20.7 220.83-19.25 220.83-16.82 220.83-14.4 219.6-12.75 218.38-11.1 216.63-10.2L216.63-10.2Q213.08-8.45 210.13-8L210.13-8 208.93-7.85Q209.28-3.15 212.78-3.15L212.78-3.15Q213.98-3.15 215.33-3.75 216.68-4.35 217.43-4.95L217.43-4.95 218.18-5.55 219.38-3.95Q218.98-3.4 217.78-2.5 216.58-1.6 215.53-1L215.53-1Q212.63 0.6 209.18 0.6 205.73 0.6 203.73-1.85 201.73-4.3 201.73-8.65ZM208.88-10.3Q211.43-10.75 212.93-12.45 214.43-14.15 214.43-16.85 214.43-19.55 212.83-19.55L212.83-19.55Q210.93-19.55 209.9-16.32 208.88-13.1 208.88-10.3L208.88-10.3ZM222.88 0.15L222.88 0.15 222.53 0.15Q222.43-0.25 222.43-1.68 222.43-3.1 223.78-9.35 225.13-15.6 225.13-16.5L225.13-16.5Q225.13-18.05 223.73-19.9L223.73-19.9 223.28-20.5 223.33-21.15Q226.03-21.9 231.98-21.9L231.98-21.9Q232.58-20.6 232.58-18.25L232.58-18.25Q233.13-19.15 234.88-20.65 236.63-22.15 238.48-22.15L238.48-22.15Q241.18-22.15 241.18-17.45L241.18-17.45Q240.93-17.15 240.5-16.68 240.08-16.2 238.8-15.35 237.53-14.5 236.33-14.3L236.33-14.3Q236.28-14.3 235.48-15.65 234.68-17 234.28-17L234.28-17Q233.03-16.55 232.08-15.5L232.08-15.5Q229.78-5.15 229.78-2.1L229.78-2.1Q229.78-1 229.83-0.55L229.83-0.55Q228.08 0.15 222.88 0.15Z" opacity="1" transform="matrix(1,0,0,1,0,0)" fill="#000000" class="undefined-text-0" data-fill-palette-color="primary" id="text-0"></path></svg></g></svg></g></svg></g></svg></g><g transform="matrix(1,0,0,1,102.0617855222784,0)"><svg viewBox="0 0 191.39642895544318 191.39642895544318" height="191.39642895544318" width="191.39642895544318"><g><svg></svg></g><g id="icon-0"><svg viewBox="0 0 191.39642895544318 191.39642895544318" height="191.39642895544318" width="191.39642895544318"><g><path d="M0 95.698c0-52.853 42.846-95.698 95.698-95.698 52.853 0 95.698 42.846 95.698 95.698 0 52.853-42.846 95.698-95.698 95.698-52.853 0-95.698-42.846-95.698-95.698zM95.698 184.251c48.906 0 88.553-39.646 88.553-88.553 0-48.906-39.646-88.553-88.553-88.552-48.906 0-88.553 39.646-88.552 88.552 0 48.906 39.646 88.553 88.552 88.553z" data-fill-palette-color="tertiary" fill="#000000" stroke="transparent"></path></g><g transform="matrix(1,0,0,1,41.72402420498682,41.72402420498682)"><svg viewBox="0 0 107.94838054546955 107.94838054546955" height="107.94838054546955" width="107.94838054546955"><g><svg xmlns:x="http://ns.adobe.com/Extensibility/1.0/" xmlns:i="http://ns.adobe.com/AdobeIllustrator/10.0/" xmlns:graph="http://ns.adobe.com/Graphs/1.0/" xmlns="http://www.w3.org/2000/svg" xmlns:xlink="http://www.w3.org/1999/xlink" version="1.1" x="0" y="0" viewBox="6 6 52 52" enable-background="new 0 0 64 64" xml:space="preserve" height="107.94838054546955" width="107.94838054546955" class="icon-s-0" data-fill-palette-color="accent" id="s-0"><g fill="#000000" data-fill-palette-color="accent"><path d="M53.5 6h-43C8.019 6 6 8.019 6 10.5v43c0 2.481 2.019 4.5 4.5 4.5h43c2.481 0 4.5-2.019 4.5-4.5v-43C58 8.019 55.981 6 53.5 6zM48 46H16c-1.104 0-2-0.896-2-2s0.896-2 2-2h32c1.104 0 2 0.896 2 2S49.104 46 48 46zM48 34H16c-1.104 0-2-0.896-2-2s0.896-2 2-2h32c1.104 0 2 0.896 2 2S49.104 34 48 34zM48 22H16c-1.104 0-2-0.896-2-2s0.896-2 2-2h32c1.104 0 2 0.896 2 2S49.104 22 48 22z" fill="#000000" data-fill-palette-color="accent"></path></g></svg></g></svg></g></svg></g></svg></g><g></g></svg></g><defs></defs></svg><rect width="317.39761132491753" height="247.2" fill="none" stroke="none" visibility="hidden"></rect></g></svg></g></svg>